   <svg class="w-[35px]" width="100%"
                    viewBox="203.02767445665933 163.02767332025888 143.94403364274268 143.94399045952622">
                    <g data-paper-data="{&quot;isIcon&quot;:&quot;true&quot;,&quot;iconType&quot;:&quot;icon&quot;,&quot;rawIconId&quot;:&quot;600338&quot;,&quot;selectedEffects&quot;:{&quot;container&quot;:&quot;circle_simple_filledplus&quot;,&quot;transformation&quot;:&quot;&quot;,&quot;pattern&quot;:&quot;&quot;},&quot;isDetailed&quot;:false,&quot;fillRule&quot;:&quot;nonzero&quot;,&quot;blockLetter&quot;:&quot;O&quot;,&quot;blockLetterId&quot;:0,&quot;relativeBoundsIconToContainer&quot;:{&quot;top&quot;:-0.021709287775885672,&quot;left&quot;:0.05422678802077885},&quot;widthRatioIconToContainer&quot;:0.6171752737738148,&quot;heightRatioIconToContainer&quot;:0.7504392525137356,&quot;bounds&quot;:{&quot;x&quot;:203.02767445665933,&quot;y&quot;:163.02767332025888,&quot;width&quot;:143.94403364274268,&quot;height&quot;:143.94399045952622},&quot;iconStyle&quot;:&quot;standalone&quot;,&quot;suitableAsStandaloneIcon&quot;:true}"
                        fill-rule="nonzero">
                        <path
                            d="M211.0473,234.99969c0,-35.31997 28.6325,-63.95247 63.95247,-63.95247c35.31997,0 63.95247,28.6325 63.95247,63.95247c0,35.31997 -28.6325,63.95247 -63.95247,63.95247c-35.31997,0 -63.95247,-28.6325 -63.95247,-63.95247zM278.031,177.86407c-21.90446,0 -39.64506,17.73936 -39.64506,39.62245c0.69459,8.6844 2.63396,17.27336 7.99357,24.36759v42.77516c0,0.69334 0.56271,1.25606 1.25606,1.25606h51.1556c0.6946,0 1.25606,-0.56271 1.25606,-1.25606v-14.76877c9.12905,-0.85789 16.99325,-7.3467 17.5208,-16.88523l0.06406,-0.31904v-5.13729h8.33648c0.70364,0 1.2391,-0.56674 1.25606,-1.22202v-0.06393c-0.00302,-0.11518 -0.02198,-0.2325 -0.05903,-0.34944l-9.59128,-30.37281l-0.06909,-0.13691c-2.06999,-20.90212 -18.18777,-36.85535 -39.47424,-37.50976zM278.00963,180.37619c19.89224,0.34542 36.03011,15.77612 37.0312,35.57542c0.12686,0.51248 0,0.35797 0.21605,0.56271l8.99717,28.4925h-7.87801c-0.69334,0 -1.25606,0.56145 -1.25606,1.25606v6.18108l-0.03894,0.16957c-0.70591,8.34402 -7.16709,14.28519 -15.50984,14.77128l-0.71596,-0.03643c-0.71847,-0.03643 -1.32013,0.53508 -1.32013,1.25481v14.77002h-48.64348v-41.90722c0,-0.27131 -0.08792,-0.53508 -0.24996,-0.75238c-4.79438,-6.40339 -7.28389,-14.15581 -7.74487,-23.28989c0.00125,-20.43235 16.61643,-37.04752 37.11284,-37.04752zM311.69468,216.80197c0,-18.73038 -15.18327,-33.91365 -33.91365,-33.91365c-18.73038,0 -33.91365,15.18327 -33.91365,33.91365c0,18.73038 15.18327,33.91365 33.91365,33.91365c18.73038,0 33.91365,-15.18327 33.91365,-33.91365zM246.37949,216.80197c0,-17.34244 14.0591,-31.40153 31.40153,-31.40153c17.34244,0 31.40153,14.0591 31.40153,31.40153c0,17.34244 -14.0591,31.40153 -31.40153,31.40153c-17.34244,0 -31.40153,-14.0591 -31.40153,-31.40153zM252.6598,209.2656c0,-0.69334 -0.56271,-1.25606 -1.25606,-1.25606c-0.69334,0 -1.25606,0.56271 -1.25606,1.25606v12.56061c0,0.69334 0.56271,1.25606 1.25606,1.25606c0.69334,0 1.25606,-0.56271 1.25606,-1.25606zM263.96435,212.40575c0,-2.42797 -1.96825,-4.39621 -4.39621,-4.39621c-2.42797,0 -4.39621,1.96825 -4.39621,4.39621v6.28031c0,2.42797 1.96825,4.39621 4.39621,4.39621c2.42797,0 4.39621,-1.96825 4.39621,-4.39621zM268.98859,209.2656c0,-0.69334 -0.56271,-1.25606 -1.25606,-1.25606c-0.69334,0 -1.25606,0.56271 -1.25606,1.25606v12.56061c0,0.69334 0.56271,1.25606 1.25606,1.25606c0.69334,0 1.25606,-0.56271 1.25606,-1.25606zM274.01284,209.2656c0,-0.69334 -0.56271,-1.25606 -1.25606,-1.25606c-0.69334,0 -1.25606,0.56271 -1.25606,1.25606v12.56061c0,0.69334 0.56271,1.25606 1.25606,1.25606c0.69334,0 1.25606,-0.56271 1.25606,-1.25606zM285.31739,212.40575c0,-2.42797 -1.96825,-4.39621 -4.39621,-4.39621c-2.42797,0 -4.39621,1.96825 -4.39621,4.39621v6.28031c0,2.42797 1.96825,4.39621 4.39621,4.39621c2.42797,0 4.39621,-1.96825 4.39621,-4.39621zM290.34164,209.2656c0,-0.69334 -0.56271,-1.25606 -1.25606,-1.25606c-0.69334,0 -1.25606,0.56271 -1.25606,1.25606v12.56061c0,0.69334 0.56271,1.25606 1.25606,1.25606c0.69334,0 1.25606,-0.56271 1.25606,-1.25606zM295.36588,209.2656c0,-0.69334 -0.56271,-1.25606 -1.25606,-1.25606c-0.69334,0 -1.25606,0.56271 -1.25606,1.25606v12.56061c0,0.69334 0.56271,1.25606 1.25606,1.25606c0.69334,0 1.25606,-0.56271 1.25606,-1.25606zM306.67043,212.40575c0,-2.42797 -1.96825,-4.39621 -4.39621,-4.39621c-2.42797,0 -4.39621,1.96825 -4.39621,4.39621v6.28031c0,2.42797 1.96825,4.39621 4.39621,4.39621c2.42797,0 4.39621,-1.96825 4.39621,-4.39621zM257.68405,212.40575c0,-1.04002 0.84407,-1.88409 1.88409,-1.88409c1.04002,0 1.88409,0.84407 1.88409,1.88409v6.28031c0,1.04002 -0.84407,1.88409 -1.88409,1.88409c-1.04002,0 -1.88409,-0.84407 -1.88409,-1.88409zM279.03709,212.40575c0,-1.04002 0.84407,-1.88409 1.88409,-1.88409c1.04002,0 1.88409,0.84407 1.88409,1.88409v6.28031c0,1.04002 -0.84407,1.88409 -1.88409,1.88409c-1.04002,0 -1.88409,-0.84407 -1.88409,-1.88409zM300.39012,212.40575c0,-1.04002 0.84407,-1.88409 1.88409,-1.88409c1.04002,0 1.88409,0.84407 1.88409,1.88409v6.28031c0,1.04002 -0.84407,1.88409 -1.88409,1.88409c-1.04002,0 -1.88409,-0.84407 -1.88409,-1.88409zM346.95821,236.41761l-0.01681,0.71926l-0.02396,0.71842l-0.03111,0.71884l-0.03784,0.71842l-0.04498,0.71799l-0.05213,0.71758l-0.05927,0.71716l-0.06642,0.71632l-0.07356,0.71589l-0.08071,0.71547l-0.08828,0.71421l-0.095,0.71379l-0.10257,0.71253l-0.1093,0.71169l-0.11686,0.71043l-0.12401,0.70917l-0.13158,0.70791l-0.1383,0.70664l-0.14587,0.70497l-0.15301,0.70371l-0.16016,0.70202l-0.16731,0.70076l-0.17404,0.69824l-0.1816,0.69698l-0.18875,0.69488l-0.19548,0.69277l-0.20304,0.69109l-0.20935,0.68857l-0.21691,0.68647l-0.22322,0.68437l-0.23079,0.68227l-0.23709,0.67932l-0.24381,0.67722l-0.25054,0.67428l-0.25769,0.67218l-0.26358,0.66923l-0.27072,0.66671l-0.2766,0.66419l-0.1631,0.38254l-0.28585,0.6562l-0.29342,0.65662l-0.29973,0.6541l-0.30645,0.65074l-0.31275,0.64822l-0.31948,0.64485l-0.32537,0.64149l-0.33252,0.63854l-0.3384,0.63518l-0.34513,0.63182l-0.35101,0.62846l-0.35774,0.62467l-0.36404,0.62089l-0.37035,0.61753l-0.37665,0.61374l-0.38254,0.60996l-0.38927,0.60576l-0.39515,0.60197l-0.40104,0.59777l-0.40734,0.59357l-0.41323,0.58978l-0.41953,0.58516l-0.42499,0.58096l-0.43088,0.57675l-0.43719,0.57213l-0.44223,0.56792l-0.44812,0.5633l-0.454,0.55868l-0.45947,0.55405l-0.46493,0.54943l-0.46998,0.5448l-0.47544,0.54018l-0.4809,0.53513l-0.48595,0.53051l-0.49142,0.52547l-0.49604,0.52084l-0.50108,0.51579l-0.50571,0.51075l-0.29468,0.29342l-0.51117,0.50067l-0.51874,0.49814l-0.52337,0.49352l-0.52799,0.48805l-0.53303,0.48343l-0.53808,0.47754l-0.54228,0.47292l-0.54733,0.46703l-0.55195,0.46199l-0.55657,0.4561l-0.56119,0.45064l-0.56582,0.44518l-0.57003,0.43929l-0.57465,0.43383l-0.57927,0.42752l-0.58306,0.42205l-0.58768,0.41617l-0.59188,0.40987l-0.59609,0.40398l-0.60029,0.39809l-0.60408,0.39179l-0.60786,0.38548l-0.61206,0.37918l-0.61584,0.37329l-0.61921,0.36699l-0.62341,0.36026l-0.62678,0.35438l-0.63014,0.34765l-0.63392,0.34177l-0.63687,0.33504l-0.64023,0.32831l-0.64359,0.32243l-0.64653,0.3157l-0.64989,0.30939l-0.65242,0.30267l-0.65578,0.29636l-0.65831,0.29005l-0.66083,0.28333l-0.65326,0.27282l-0.66629,0.27072l-0.66923,0.26399l-0.67176,0.25769l-0.67428,0.25096l-0.67722,0.24381l-0.67932,0.23751l-0.68184,0.23079l-0.68394,0.22364l-0.68647,0.21691l-0.68857,0.21019l-0.69109,0.20304l-0.69277,0.19589l-0.69446,0.18875l-0.69698,0.18202l-0.69866,0.17445l-0.69992,0.16773l-0.70202,0.16016l-0.70371,0.15344l-0.70497,0.14587l-0.70664,0.13873l-0.70791,0.13158l-0.70959,0.12443l-0.71043,0.11729l-0.71127,0.10971l-0.71253,0.10299l-0.71379,0.09543l-0.71421,0.08828l-0.71547,0.08071l-0.71589,0.07399l-0.71673,0.06684l-0.71716,0.05927l-0.71758,0.05255l-0.71799,0.0454l-0.71842,0.03825l-0.71884,0.03111l-0.71884,0.02438l-0.71884,0.01724l-0.71896,0.01051l-0.71901,0.00336l-0.70741,-0.00294l-0.71879,-0.01051l-0.71884,-0.01681l-0.71879,-0.02396l-0.71858,-0.03111l-0.71833,-0.03784l-0.71799,-0.04498l-0.71762,-0.05213l-0.71711,-0.05927l-0.71657,-0.06642l-0.71593,-0.07356l-0.71527,-0.08071l-0.71438,-0.08828l-0.71358,-0.095l-0.71262,-0.10257l-0.71152,-0.1093l-0.71047,-0.11686l-0.70926,-0.12401l-0.70795,-0.13158l-0.70664,-0.1383l-0.70513,-0.14587l-0.70366,-0.15301l-0.70211,-0.16016l-0.70034,-0.16731l-0.69862,-0.17404l-0.69681,-0.1816l-0.69492,-0.18875l-0.6929,-0.19548l-0.69088,-0.20304l-0.68878,-0.20935l-0.68651,-0.21691l-0.68428,-0.22364l-0.68197,-0.23036l-0.67957,-0.23709l-0.67706,-0.24381l-0.67462,-0.25054l-0.67197,-0.25727l-0.66936,-0.26399l-0.66667,-0.27072l-0.66389,-0.2766l-0.38254,-0.1631l-0.65628,-0.28585l-0.65674,-0.29342l-0.65389,-0.29973l-0.65099,-0.30645l-0.64796,-0.31275l-0.64493,-0.31948l-0.6417,-0.32537l-0.63851,-0.33252l-0.63518,-0.3384l-0.63178,-0.34513l-0.62833,-0.35101l-0.62476,-0.35774l-0.62112,-0.36404l-0.61743,-0.37035l-0.61366,-0.37665l-0.6098,-0.38254l-0.6059,-0.38927l-0.60189,-0.39515l-0.59786,-0.40104l-0.59375,-0.40734l-0.58956,-0.41323l-0.58531,-0.41953l-0.58101,-0.42499l-0.57666,-0.43088l-0.57224,-0.43719l-0.56777,-0.44223l-0.56325,-0.44854l-0.55872,-0.45358l-0.55405,-0.45947l-0.54947,-0.46493l-0.54472,-0.46998l-0.54001,-0.47544l-0.53522,-0.4809l-0.53043,-0.48595l-0.52559,-0.49142l-0.52076,-0.49604l-0.51584,-0.50108l-0.51097,-0.50571l-0.29308,-0.29468l-0.50083,-0.51117l-0.49831,-0.51874l-0.4933,-0.52337l-0.48827,-0.52799l-0.48309,-0.53303l-0.47788,-0.53808l-0.47258,-0.54228l-0.46724,-0.54733l-0.46178,-0.55195l-0.45632,-0.55657l-0.45072,-0.56119l-0.44509,-0.56582l-0.43937,-0.57003l-0.43362,-0.57465l-0.42782,-0.57927l-0.42193,-0.58306l-0.416,-0.58768l-0.40999,-0.59188l-0.40398,-0.59609l-0.39788,-0.60029l-0.39174,-0.60408l-0.3856,-0.60786l-0.37939,-0.61206l-0.37312,-0.61584l-0.36686,-0.61921l-0.36055,-0.62341l-0.3542,-0.62678l-0.34786,-0.63014l-0.34147,-0.6335l-0.33504,-0.63728l-0.32865,-0.64023l-0.32218,-0.64359l-0.31574,-0.64653l-0.30931,-0.64989l-0.30284,-0.65242l-0.2964,-0.65578l-0.28993,-0.65831l-0.28345,-0.66124l-0.27265,-0.65284l-0.27064,-0.66629l-0.26412,-0.66923l-0.25756,-0.67176l-0.25092,-0.67469l-0.24419,-0.6768l-0.23743,-0.67932l-0.23066,-0.68184l-0.2238,-0.68437l-0.21687,-0.68604l-0.20998,-0.68899l-0.20295,-0.69067l-0.19594,-0.69277l-0.18891,-0.69488l-0.18181,-0.69656l-0.1747,-0.69866l-0.16756,-0.70034l-0.16038,-0.70202l-0.15323,-0.70328l-0.14604,-0.70538l-0.13881,-0.70664l-0.13158,-0.70791l-0.12439,-0.70917l-0.11711,-0.71043l-0.10993,-0.71127l-0.10265,-0.71295l-0.09546,-0.71337l-0.08824,-0.71463l-0.08105,-0.71506l-0.0739,-0.71589l-0.06667,-0.71673l-0.05956,-0.71716l-0.05242,-0.71758l-0.04536,-0.71799l-0.0383,-0.71842l-0.03124,-0.71884l-0.02425,-0.71884l-0.01732,-0.71884l-0.01034,-0.71926l-0.00353,-0.71884l0.00324,-0.70749l0.01013,-0.71884l0.01703,-0.71884l0.02396,-0.71884l0.03098,-0.71842l0.038,-0.71842l0.04506,-0.71799l0.05217,-0.71758l0.05927,-0.71716l0.06642,-0.71632l0.07356,-0.71611l0.08075,-0.71522l0.08794,-0.71442l0.09518,-0.71354l0.1024,-0.71262l0.10959,-0.71157l0.11686,-0.71043l0.12405,-0.70926l0.13133,-0.70799l0.13851,-0.70661l0.14574,-0.70517l0.15293,-0.70366l0.16008,-0.70207l0.16731,-0.70038l0.17441,-0.69862l0.18151,-0.69681l0.18862,-0.69492l0.19568,-0.6929l0.2027,-0.69088l0.20968,-0.68874l0.21662,-0.68656l0.22355,-0.68428l0.23036,-0.68193l0.23721,-0.67957l0.24394,-0.67709l0.25067,-0.67457l0.25731,-0.67201l0.26391,-0.66932l0.27043,-0.66667l0.27694,-0.66389l0.16298,-0.3825l0.2856,-0.65628l0.29346,-0.65671l0.29989,-0.65393l0.30637,-0.65099l0.31284,-0.64796l0.31928,-0.64489l0.3257,-0.64174l0.33214,-0.63851l0.33857,-0.63518l0.34495,-0.63178l0.3513,-0.62833l0.35769,-0.62476l0.364,-0.62114l0.3703,-0.6174l0.37657,-0.61366l0.38279,-0.60983l0.38897,-0.60588l0.39515,-0.60189l0.40124,-0.59789l0.4073,-0.59373l0.41331,-0.58953l0.41924,-0.58533l0.4252,-0.58104l0.431,-0.57663l0.43681,-0.57225l0.44257,-0.56779l0.4482,-0.56326l0.45383,-0.55868l0.45934,-0.55408l0.46485,-0.54943l0.47023,-0.54473l0.47557,-0.54l0.48078,-0.53523l0.48603,-0.53043l0.49108,-0.5256l0.49612,-0.52074l0.50113,-0.51585l0.50596,-0.51094l0.29464,-0.29311l0.51113,-0.5008l0.51849,-0.49831l0.52337,-0.49332l0.5282,-0.48825l0.53303,-0.48309l0.53783,-0.47792l0.54258,-0.47258l0.54724,-0.4672l0.55195,-0.46182l0.55662,-0.45627l0.56116,-0.45072l0.56571,-0.44509l0.57021,-0.43937l0.57465,-0.43362l0.57904,-0.42782l0.58337,-0.42193l0.58764,-0.416l0.59185,-0.40999l0.596,-0.40398l0.60009,-0.39788l0.60411,-0.39179l0.60806,-0.38557l0.61194,-0.37939l0.61576,-0.37317l0.61951,-0.36686l0.62316,-0.36055l0.62673,-0.3542l0.63027,-0.34782l0.63371,-0.34147l0.63703,-0.33508l0.64036,-0.3286l0.64355,-0.32222l0.64666,-0.31574l0.64968,-0.30931l0.65267,-0.30284l0.65553,-0.2964l0.65834,-0.28993l0.66103,-0.28345l0.65313,-0.27265l0.66637,-0.27064l0.66915,-0.26412l0.67184,-0.25756l0.67441,-0.25088l0.67693,-0.24419l0.67941,-0.23747l0.68184,-0.23061l0.68412,-0.2238l0.68643,-0.21691l0.68861,-0.20994l0.69076,-0.20295l0.69282,-0.19594l0.69479,-0.18891l0.69673,-0.18181l0.69853,-0.1747l0.70034,-0.16756l0.70198,-0.16038l0.70358,-0.15323l0.70513,-0.14604l0.70656,-0.13881l0.70795,-0.13158l0.70921,-0.12439l0.71043,-0.11711l0.71157,-0.10993l0.71257,-0.10265l0.71358,-0.09546l0.71442,-0.08824l0.71527,-0.08105l0.71598,-0.07386l0.71661,-0.06671l0.71716,-0.05956l0.71766,-0.05242l0.71808,-0.04536l0.71842,-0.0383l0.71867,-0.03124l0.71884,-0.02425l0.71896,-0.01728l0.71901,-0.01039l0.71896,-0.00353l0.70728,0.00324l0.71858,0.01013l0.71926,0.01703l0.71842,0.02396l0.71884,0.03098l0.71842,0.038l0.71799,0.04506l0.71758,0.05213l0.71716,0.05927l0.71632,0.06642l0.71589,0.07356l0.71547,0.08075l0.71421,0.08799l0.71379,0.09513l0.71253,0.1024l0.71169,0.10959l0.71043,0.11686l0.70917,0.12405l0.70791,0.13133l0.70664,0.13851l0.70497,0.14574l0.70371,0.15289l0.70202,0.16012l0.70034,0.16726l0.69866,0.17441l0.69698,0.18156l0.69488,0.18862l0.69277,0.19568l0.69109,0.2027l0.68857,0.20968l0.68647,0.21662l0.68437,0.22351l0.68227,0.2304l0.67932,0.23721l0.67722,0.24394l0.67469,0.25067l0.67176,0.25731l0.66923,0.26391l0.66671,0.27047l0.66419,0.2769l0.38212,0.16298l0.65662,0.28564l0.65662,0.29342l0.65368,0.29994l0.65116,0.30637l0.64779,0.3128l0.64527,0.31928l0.64149,0.3257l0.63854,0.33218l0.63518,0.33853l0.63182,0.34495l0.62846,0.35135l0.62467,0.35765l0.62089,0.364l0.61753,0.3703l0.61374,0.37657l0.60996,0.38279l0.60576,0.38897l0.60197,0.39515l0.59777,0.40124l0.59357,0.4073l0.58978,0.41331l0.58516,0.41928l0.58096,0.42517l0.57675,0.431l0.57213,0.43685l0.56792,0.44253l0.5633,0.44824l0.55868,0.45379l0.55405,0.45938l0.54943,0.4648l0.5448,0.47023l0.54018,0.47557l0.53513,0.48082l0.53051,0.48601l0.52547,0.4911l0.52084,0.49613l0.51579,0.50108l0.51075,0.50597l0.29342,0.29465l0.50067,0.51114l0.49814,0.51849l0.49352,0.52336l0.48805,0.5282l0.48343,0.53302l0.47754,0.53781l0.47292,0.54255l0.46703,0.54728l0.46199,0.55194l0.4561,0.55659l0.45064,0.56116l0.44518,0.56574l0.43929,0.57019l0.43383,0.57465l0.42752,0.57902l0.42205,0.58339l0.41617,0.58764l0.40987,0.59184l0.40398,0.59601l0.39809,0.60008l0.39179,0.60412l0.38548,0.60807l0.37918,0.61193l0.37329,0.61576l0.36699,0.61951l0.36026,0.62316l0.35438,0.62673l0.34765,0.63027l0.34177,0.63371l0.33504,0.63703l0.32873,0.64036l0.322,0.64355l0.3157,0.64666l0.30939,0.64968l0.30267,0.65267l0.29636,0.65553l0.29005,0.65834l0.28333,0.66103l0.27282,0.65313l0.27072,0.66633l0.26399,0.66919l0.25769,0.67184l0.25096,0.67441l0.24424,0.67693l0.23709,0.67941l0.23079,0.68181l0.22364,0.68416l0.21691,0.68647l0.21019,0.68857l0.20304,0.69076l0.19589,0.69282l0.18875,0.69483l0.18202,0.69668l0.17445,0.69853l0.16773,0.7003l0.16016,0.70202l0.15344,0.70358l0.14587,0.70513l0.13873,0.70661l0.13158,0.70791l0.12443,0.70921l0.11729,0.71043l0.10971,0.71157l0.10299,0.71257l0.09543,0.71358l0.08828,0.71442l0.08071,0.71527l0.07399,0.71589l0.06684,0.71673l0.05927,0.71716l0.05255,0.71758l0.0454,0.71799l0.03825,0.71842l0.03111,0.71884l0.02438,0.71884l0.01724,0.71884l0.01051,0.71926l0.00336,0.71884v0.01597l-0.00294,0.69151zM343.59187,234.32121l-0.00967,-0.68689l-0.0164,-0.68604l-0.02312,-0.68604l-0.02943,-0.68563l-0.03657,-0.68521l-0.04288,-0.68479l-0.05003,-0.68437l-0.05633,-0.68394l-0.06348,-0.68268l-0.0702,-0.68247l-0.07735,-0.68151l-0.08365,-0.68067l-0.0908,-0.6797l-0.09753,-0.67873l-0.10468,-0.67768l-0.1114,-0.67654l-0.11813,-0.67533l-0.12527,-0.67411l-0.132,-0.67277l-0.13873,-0.67138l-0.14587,-0.66994l-0.1526,-0.66835l-0.15932,-0.66684l-0.16605,-0.66516l-0.17278,-0.66347l-0.17992,-0.66167l-0.18623,-0.65986l-0.19337,-0.65793l-0.19968,-0.65603l-0.2064,-0.65397l-0.21313,-0.65192l-0.21985,-0.64977l-0.22616,-0.64763l-0.23246,-0.64536l-0.23919,-0.64313l-0.2455,-0.64077l-0.2518,-0.63833l-0.25811,-0.63611l-0.25979,-0.62312l-0.27072,-0.63089l-0.27619,-0.62821l-0.28249,-0.62534l-0.28879,-0.62249l-0.29468,-0.61954l-0.30099,-0.61656l-0.30687,-0.61349l-0.31318,-0.61029l-0.31906,-0.6071l-0.32537,-0.60387l-0.33125,-0.60046l-0.33714,-0.59709l-0.34303,-0.59365l-0.34933,-0.59008l-0.35522,-0.5865l-0.3611,-0.58284l-0.3674,-0.57914l-0.37287,-0.57537l-0.37875,-0.57154l-0.38422,-0.56763l-0.39053,-0.56376l-0.39599,-0.55977l-0.40188,-0.55569l-0.40734,-0.55165l-0.4128,-0.54749l-0.41827,-0.54333l-0.42415,-0.53913l-0.4292,-0.53488l-0.43509,-0.53059l-0.44013,-0.52627l-0.44518,-0.52189l-0.45064,-0.51748l-0.45568,-0.51307l-0.46073,-0.5086l-0.46577,-0.50414l-0.47082,-0.49962l-0.47544,-0.49509l-0.48301,-0.493l-0.27493,-0.27668l-0.48805,-0.48321l-0.49225,-0.47845l-0.49688,-0.4736l-0.50108,-0.4687l-0.50613,-0.46372l-0.51033,-0.45869l-0.51495,-0.45357l-0.51916,-0.44841l-0.52337,-0.4432l-0.52799,-0.43792l-0.53219,-0.43257l-0.53682,-0.42718l-0.5406,-0.42176l-0.54522,-0.41621l-0.54901,-0.41067l-0.55321,-0.40512l-0.55742,-0.39939l-0.56119,-0.39377l-0.5654,-0.388l-0.56918,-0.3822l-0.57297,-0.37644l-0.57717,-0.37056l-0.58053,-0.36468l-0.58432,-0.35879l-0.5881,-0.35282l-0.59147,-0.34685l-0.59483,-0.34088l-0.59861,-0.33483l-0.60197,-0.32885l-0.60534,-0.32276l-0.60828,-0.31667l-0.61164,-0.31065l-0.61501,-0.30452l-0.61753,-0.29847l-0.62089,-0.29233l-0.62383,-0.28623l-0.62636,-0.28014l-0.63266,-0.27543l-0.359,-0.15298l-0.63308,-0.26437l-0.63602,-0.25811l-0.63813,-0.25184l-0.64064,-0.2455l-0.64317,-0.23911l-0.64527,-0.23268l-0.64737,-0.22616l-0.64989,-0.21969l-0.65199,-0.21313l-0.65368,-0.20649l-0.65578,-0.19989l-0.65831,-0.1932l-0.65957,-0.18652l-0.66167,-0.17975l-0.66334,-0.17303l-0.66503,-0.16621l-0.66713,-0.15945l-0.66839,-0.1526l-0.66966,-0.14574l-0.67133,-0.13893l-0.67302,-0.13208l-0.67386,-0.12519l-0.67554,-0.11829l-0.67638,-0.11144l-0.67764,-0.10459l-0.6789,-0.09769l-0.67974,-0.0908l-0.68058,-0.08399l-0.68184,-0.0771l-0.68227,-0.07029l-0.68311,-0.06348l-0.68353,-0.05666l-0.68437,-0.0499l-0.68521,-0.04317l-0.68521,-0.0364l-0.68563,-0.02972l-0.68604,-0.02304l-0.68659,-0.0164l-0.68676,-0.0098l-0.67541,-0.00324l-0.68668,0.0032l-0.68651,0.00975l-0.6863,0.01635l-0.68604,0.023l-0.68567,0.02964l-0.68529,0.03636l-0.68483,0.04309l-0.68428,0.04981l-0.68366,0.05663l-0.68306,0.06344l-0.68227,0.0702l-0.68151,0.07705l-0.68067,0.0839l-0.6797,0.09076l-0.67873,0.09765l-0.67768,0.1045l-0.67654,0.11136l-0.67533,0.11825l-0.67411,0.12514l-0.67277,0.132l-0.67138,0.13885l-0.66991,0.1457l-0.66839,0.15255l-0.66684,0.15936l-0.66516,0.16618l-0.66347,0.17294l-0.66167,0.17971l-0.65986,0.18648l-0.65793,0.19312l-0.65599,0.19984l-0.65402,0.20644l-0.65192,0.21309l-0.64977,0.21964l-0.64763,0.22616l-0.64536,0.23264l-0.64313,0.23906l-0.64073,0.2455l-0.63838,0.2518l-0.63611,0.25815l-0.62312,0.25996l-0.63089,0.27038l-0.62821,0.27648l-0.62534,0.28258l-0.62249,0.28867l-0.61959,0.29477l-0.61652,0.30086l-0.61349,0.30695l-0.61029,0.31305l-0.60714,0.3191l-0.60382,0.3252l-0.6005,0.33121l-0.59709,0.33727l-0.59361,0.34323l-0.59008,0.34924l-0.5865,0.35522l-0.58284,0.36114l-0.57914,0.36707l-0.57537,0.37292l-0.57154,0.37875l-0.56766,0.38455l-0.56374,0.39032l-0.55975,0.39603l-0.55572,0.40175l-0.55164,0.40734l-0.54751,0.41293l-0.54334,0.41848l-0.53913,0.42394l-0.53487,0.42938l-0.53058,0.43476l-0.52625,0.44008l-0.52189,0.44535l-0.51751,0.45054l-0.51307,0.45569l-0.50861,0.46076l-0.50411,0.46579l-0.49965,0.47074l-0.49507,0.47562l-0.49302,0.48287l-0.27669,0.27509l-0.48322,0.48776l-0.47843,0.49232l-0.47359,0.49687l-0.46872,0.50139l-0.46372,0.50588l-0.45867,0.51035l-0.45358,0.51479l-0.44841,0.51924l-0.4432,0.52357l-0.4379,0.52794l-0.4326,0.53228l-0.42718,0.53657l-0.42172,0.54081l-0.41621,0.54497l-0.4107,0.54918l-0.40507,0.55325l-0.39944,0.55733l-0.39372,0.56132l-0.388,0.56532l-0.38224,0.56923l-0.3764,0.57309l-0.37056,0.57692l-0.36472,0.58062l-0.35874,0.58436l-0.35282,0.58793l-0.34689,0.59155l-0.34084,0.59508l-0.33487,0.59848l-0.32882,0.60189l-0.32276,0.60521l-0.31671,0.60844l-0.31061,0.61164l-0.30452,0.61479l-0.29847,0.61782l-0.29233,0.62081l-0.28628,0.62371l-0.28014,0.62661l-0.27543,0.63253l-0.15293,0.3587l-0.26433,0.63338l-0.25815,0.63586l-0.2518,0.63829l-0.2455,0.64069l-0.23911,0.643l-0.23268,0.64532l-0.2262,0.6475l-0.21969,0.64973l-0.21313,0.65187l-0.20649,0.65389l-0.19989,0.65595l-0.1932,0.65788l-0.18648,0.65982l-0.17979,0.66162l-0.17298,0.66343l-0.16626,0.66516l-0.1594,0.66676l-0.15264,0.66839l-0.14574,0.66994l-0.13893,0.67133l-0.13208,0.67277l-0.12519,0.67411l-0.11829,0.67537l-0.11144,0.67654l-0.10459,0.67772l-0.09769,0.67873l-0.09084,0.67974l-0.08395,0.68071l-0.07714,0.68155l-0.07029,0.68243l-0.06348,0.68311l-0.05666,0.68353l-0.0499,0.68437l-0.04313,0.68521l-0.03645,0.68521l-0.02968,0.68563l-0.02308,0.68604l-0.0164,0.68647l-0.0098,0.68689l-0.00324,0.67554l0.0032,0.68647l0.00975,0.68689l0.01635,0.68604l0.023,0.68604l0.02964,0.68563l0.03636,0.68521l0.04309,0.68479l0.04981,0.68437l0.05663,0.68394l0.06344,0.68268l0.0702,0.68268l0.07705,0.68142l0.0839,0.68058l0.09076,0.67974l0.09765,0.67848l0.10446,0.67764l0.1114,0.6768l0.11825,0.67512l0.1251,0.67428l0.132,0.67259l0.13889,0.67133l0.1457,0.67007l0.15255,0.66839l0.15936,0.66671l0.16618,0.66545l0.17294,0.66334l0.17971,0.66167l0.18648,0.65998l0.19316,0.65788l0.1998,0.65578l0.20649,0.6541l0.21304,0.65199l0.21964,0.64989l0.22616,0.64737l0.23264,0.64527l0.23911,0.64317l0.24545,0.64064l0.25184,0.63854l0.25815,0.63602l0.25996,0.62341l0.27038,0.63056l0.27648,0.62846l0.28258,0.62509l0.28867,0.62257l0.29477,0.61963l0.30086,0.61669l0.30695,0.61332l0.31305,0.61038l0.3191,0.60702l0.32516,0.60408l0.33125,0.60029l0.33722,0.59693l0.34328,0.59399l0.34924,0.58978l0.35522,0.58642l0.36114,0.58306l0.36703,0.57927l0.37292,0.57507l0.37875,0.57171l0.3846,0.5675l0.39032,0.56372l0.39603,0.55994l0.4017,0.55573l0.40734,0.55153l0.41293,0.54774l0.41848,0.54312l0.42394,0.53934l0.42941,0.53472l0.43475,0.53051l0.44009,0.52631l0.44534,0.5221l0.45055,0.51748l0.45568,0.51285l0.46077,0.50865l0.46577,0.50403l0.47073,0.49982l0.47565,0.4952l0.48284,0.49268l0.27509,0.2766l0.48776,0.48343l0.49234,0.47838l0.49688,0.47376l0.50138,0.46872l0.50588,0.46367l0.51033,0.45863l0.51483,0.45358l0.51921,0.44854l0.5236,0.44307l0.52795,0.43803l0.53228,0.43257l0.53654,0.4271l0.5408,0.42163l0.54499,0.41617l0.54915,0.4107l0.55327,0.40524l0.55733,0.39935l0.56134,0.39389l0.5653,0.388l0.56923,0.38212l0.5731,0.37623l0.57688,0.37077l0.58063,0.36447l0.58436,0.359l0.58798,0.35269l0.59151,0.3468l0.59508,0.34092l0.59848,0.33504l0.60189,0.32873l0.60521,0.32284l0.60844,0.31654l0.61168,0.31065l0.61471,0.30477l0.61787,0.29804l0.62077,0.29258l0.62379,0.28628l0.62657,0.27997l0.63253,0.27576l0.35874,0.1526l0.63342,0.26441l0.63582,0.25811l0.63829,0.2518l0.64069,0.2455l0.643,0.23919l0.64532,0.23289l0.6475,0.22616l0.64973,0.21944l0.65183,0.21313l0.65397,0.2064l0.65591,0.2001l0.65788,0.19295l0.65982,0.18665l0.66162,0.17992l0.66343,0.17278l0.66516,0.16646l0.66679,0.15932l0.66835,0.1526l0.66994,0.14587l0.67138,0.13873l0.67277,0.132l0.67407,0.12527l0.67537,0.11855l0.67654,0.1114l0.67777,0.10468l0.67873,0.09753l0.6797,0.0908l0.68075,0.08408l0.68151,0.07693l0.68239,0.0702l0.68306,0.06348l0.68373,0.05675l0.68437,0.05003l0.68487,0.0433l0.68538,0.03615l0.68579,0.02985l0.68609,0.02312l0.68643,0.0164l0.68672,0.00967l0.67554,0.00336l0.68668,-0.00336l0.68656,-0.00967l0.68613,-0.0164l0.68604,-0.02312l0.68563,-0.02943l0.68563,-0.03657l0.68479,-0.04288l0.68437,-0.05003l0.68353,-0.05633l0.68311,-0.06348l0.68227,-0.0702l0.68142,-0.07735l0.68058,-0.08365l0.67974,-0.0908l0.6789,-0.09753l0.67764,-0.10468l0.67638,-0.1114l0.67554,-0.11813l0.67386,-0.12527l0.67302,-0.132l0.67133,-0.13873l0.66966,-0.14587l0.66839,-0.1526l0.66713,-0.15932l0.66503,-0.16605l0.66334,-0.17278l0.66167,-0.17992l0.65998,-0.18665l0.65788,-0.19295l0.6562,-0.19968l0.65368,-0.20683l0.65199,-0.21271l0.64989,-0.21985l0.64737,-0.22616l0.64569,-0.23246l0.64275,-0.23919l0.64107,-0.2455l0.63813,-0.2518l0.63602,-0.25811l0.62299,-0.25979l0.63098,-0.27072l0.62846,-0.27619l0.62509,-0.28249l0.62257,-0.28879l0.61963,-0.29468l0.61669,-0.30099l0.61332,-0.30687l0.61038,-0.31318l0.60702,-0.31906l0.60366,-0.32537l0.60071,-0.33125l0.59693,-0.33714l0.59357,-0.34303l0.5902,-0.34933l0.58642,-0.35522l0.58306,-0.3611l0.57927,-0.3674l0.57507,-0.37287l0.57171,-0.37875l0.5675,-0.38422l0.56372,-0.39053l0.55994,-0.39599l0.55573,-0.40188l0.55153,-0.40734l0.54774,-0.4128l0.54312,-0.41869l0.53934,-0.42374l0.53472,-0.42962l0.53051,-0.43467l0.52631,-0.44013l0.52168,-0.44518l0.5179,-0.45064l0.51285,-0.45568l0.50865,-0.46073l0.50403,-0.46577l0.49982,-0.47082l0.49478,-0.47544l0.49309,-0.48301l0.2766,-0.27493l0.48343,-0.48805l0.47838,-0.49225l0.47376,-0.49688l0.46872,-0.50108l0.46367,-0.50613l0.45863,-0.51033l0.45358,-0.51495l0.44854,-0.51916l0.44307,-0.52337l0.43803,-0.52799l0.43257,-0.53219l0.4271,-0.53682l0.42163,-0.5406l0.41617,-0.54522l0.4107,-0.54901l0.40524,-0.55321l0.39935,-0.55742l0.39389,-0.56119l0.388,-0.5654l0.38212,-0.56918l0.37623,-0.57297l0.37077,-0.57717l0.36447,-0.58053l0.359,-0.58432l0.35269,-0.5881l0.3468,-0.59147l0.34092,-0.59483l0.33504,-0.59861l0.32873,-0.60197l0.32284,-0.60534l0.31654,-0.60828l0.31065,-0.61164l0.30477,-0.61501l0.29847,-0.61753l0.29216,-0.62089l0.28628,-0.62383l0.27997,-0.62636l0.27576,-0.63266l0.1526,-0.359l0.26441,-0.63308l0.25811,-0.63602l0.2518,-0.63813l0.2455,-0.64064l0.23919,-0.64317l0.23289,-0.64527l0.22616,-0.64737l0.21944,-0.64989l0.21313,-0.65199l0.2064,-0.65368l0.2001,-0.65578l0.19337,-0.65831l0.18623,-0.65957l0.17992,-0.66167l0.17278,-0.66334l0.16646,-0.66545l0.15932,-0.66671l0.1526,-0.66839l0.14587,-0.66966l0.13873,-0.67133l0.132,-0.67302l0.12527,-0.67386l0.11855,-0.67554l0.1114,-0.67638l0.10468,-0.67764l0.09753,-0.6789l0.0908,-0.67974l0.08408,-0.68058l0.07693,-0.68184l0.0702,-0.68227l0.06348,-0.68311l0.05675,-0.68353l0.05003,-0.68437l0.0433,-0.68521l0.03615,-0.68521l0.02985,-0.68563l0.02312,-0.68604l0.0164,-0.68647l0.00967,-0.68689l0.00336,-0.67554v-0.01597z"
                            data-paper-data="{&quot;isPathIcon&quot;:true}" style="fill: rgb(255, 255, 255);"></path>
                    </g>
                </svg>